<?xml version="1.0" encoding="UTF-8"?>
<svg width="48" height="48" version="1.1" viewBox="0 0 12.7 12.7" xmlns="http://www.w3.org/2000/svg" xmlns:cc="http://creativecommons.org/ns#" xmlns:dc="http://purl.org/dc/elements/1.1/" xmlns:rdf="http://www.w3.org/1999/02/22-rdf-syntax-ns#" xmlns:xlink="http://www.w3.org/1999/xlink">
 <defs>
  <linearGradient id="linearGradient6454" x1="24" x2="24" y1="294" y2="257" gradientTransform="matrix(.26458333 0 0 .25828372 38.083822 -64.293749)" gradientUnits="userSpaceOnUse">
   <stop stop-color="#2c3e50" offset="0"/>
   <stop stop-color="#34495e" offset="1"/>
  </linearGradient>
  <radialGradient id="radialGradient6568" cx="178.52753" cy="17.337982" r="16.220705" gradientTransform="matrix(-.00052976991 .531144 -.55567627 -.00055424122 50.511391 -89.894258)" gradientUnits="userSpaceOnUse">
   <stop stop-color="#17222d" offset="0"/>
   <stop stop-color="#17222d" stop-opacity="0" offset="1"/>
  </radialGradient>
  <linearGradient id="linearGradient2162" x1="79.999855" x2="120" y1="152.00008" y2="152.00008" gradientTransform="matrix(.16732199 0 0 .16732199 81.649306 -35.869716)" gradientUnits="userSpaceOnUse">
   <stop stop-color="#deeff8" offset="0"/>
   <stop stop-color="#c0e2f4" offset="1"/>
  </linearGradient>
  <linearGradient id="linearGradient2154" x1="60.000046" x2="140.00034" y1="191.93718" y2="191.93718" gradientTransform="matrix(.16732199 0 0 .16732199 81.649306 -35.869716)" gradientUnits="userSpaceOnUse">
   <stop stop-color="#eef6fa" offset="0"/>
   <stop stop-color="#b0dbf2" offset="1"/>
  </linearGradient>
  <linearGradient id="linearGradient6638" x1="230.60506" x2="316.36133" y1="396.15234" y2="396.15234" gradientTransform="matrix(.04427061 0 0 .04427061 81.649306 -19.639484)" gradientUnits="userSpaceOnUse">
   <stop stop-color="#31363b" offset="0"/>
   <stop stop-color="#0d0f10" offset="1"/>
  </linearGradient>
  <linearGradient id="linearGradient6769" x1="170.07874" x2="585.82678" y1="472.44095" y2="472.44095" gradientTransform="matrix(.04427061 0 0 .04427061 81.2066 -19.639484)" gradientUnits="userSpaceOnUse">
   <stop stop-color="#f39c1f" offset="0"/>
   <stop stop-color="#fdbc4b" offset="1"/>
  </linearGradient>
 </defs>
 <metadata>
  <rdf:RDF>
   <cc:Work rdf:about="">
    <dc:format>image/svg+xml</dc:format>
    <dc:type rdf:resource="http://purl.org/dc/dcmitype/StillImage"/>
    <dc:title/>
   </cc:Work>
  </rdf:RDF>
 </metadata>
 <g transform="translate(-.05374349 -.09301728)">
  <g transform="translate(-38.030082 .0930177)">
   <g>
    <rect x="39.142159" y="1.0583333" width="10.583333" height="10.583333" ry="1.8520839" fill="#17222d" stroke-width=".26458332" style="paint-order:markers fill stroke"/>
    <rect x="39.142159" y="1.0583333" width="10.583333" height="10.318749" ry="1.8079867" fill="url(#linearGradient6454)" stroke-width=".26458332" style="paint-order:markers fill stroke"/>
    <path d="m45.303277 2.7109457-1.6769 0.425297 0.464571 1.2505695-0.553455 0.027389 0.896588 0.8960691 1.069184 1.0697022-0.642856 0.032039 0.558107 0.5581055-3.324344 0.1643311 0.78858 0.7885822-1.740461 0.0863 2.097546 2.0975467-1.180288 0.03876 1.230931 1.231449h4.627108c1.001625 0 1.80816-0.806533 1.80816-1.8081578v-2.4355134z" fill="url(#radialGradient6568)" style="paint-order:normal"/>
   </g>
   <g transform="matrix(.36408841 0 0 .36408841 8.4548245 7.3639467)">
    <g transform="translate(.43793063)">
     <g>
      <path d="m98.381533-13.783213a3.3464385 3.3464385 0 0 0-3.3465 3.346496 3.3464385 3.3464385 0 0 0 3.3465 3.3464067 3.3464385 3.3464385 0 0 0 3.346407-3.3464067 3.3464385 3.3464385 0 0 0-3.346407-3.346496z" fill="url(#linearGradient2162)" style="paint-order:normal"/>
      <path d="m95.035033-7.1008583c-1.85392 0-3.3464 1.444588-3.3464 3.238931v2.617413c0 0.46348897 0.37314 0.83655997 0.83664 0.83655997h11.712517c0.4635 0 0.83664-0.373071 0.83664-0.83655997v-2.617413c0-0.291128-0.0393-0.573051-0.11304-0.841089-0.3808-1.383989-1.68032-2.397842-3.23345-2.397842h-0.81105c-0.72876 0.555146-1.619247 0.85638-2.535357 0.857656-0.91517-0.0019-1.8046-0.303084-2.53259-0.857656z" fill="url(#linearGradient2154)" style="paint-order:normal"/>
      <path d="m94.665553-4.6397893a1.254915 1.254915 0 0 0-0.12866 8e-3 1.254915 1.254915 0 0 0-9e-5 0c-8.7e-4 8.8e-5 -2e-3 2.67e-4 -3e-3 3.51e-4a1.254915 1.254915 0 0 0-0.11544 0.01747 1.254915 1.254915 0 0 0-4e-3 7.87e-4c-0.0184 0.0037-0.0366 0.0078-0.0547 0.01228a1.254915 1.254915 0 0 0-0.0675 0.01911c-0.0172 0.0053-0.0342 0.01092-0.051 0.01695a1.254915 1.254915 0 0 0-0.065 0.02551c-0.0167 0.0071-0.0332 0.01448-0.0495 0.02222a1.254915 1.254915 0 0 0-0.0624 0.03182c-0.0156 0.0085-0.0309 0.01727-0.046 0.02637a1.254915 1.254915 0 0 0-0.0595 0.03813c-0.0161 0.01097-0.0319 0.02222-0.0475 0.0339a1.254915 1.254915 0 0 0-0.0499 0.03951c-0.0171 0.01427-0.0339 0.02887-0.0502 0.04401a1.254915 1.254915 0 0 0-0.0378 0.03657c-0.0168 0.01695-0.033 0.03452-0.0488 0.0524a1.254915 1.254915 0 0 0-0.0366 0.04323c-0.0146 0.01807-0.0285 0.03656-0.0421 0.05542a1.254915 1.254915 0 0 0-0.0301 0.04375c-0.0156 0.02376-0.0307 0.04797-0.0447 0.0728a1.254915 1.254915 0 0 0-0.0165 0.03069c-0.0142 0.02695-0.0275 0.05444-0.0398 0.08249a1.254915 1.254915 0 0 0-0.0113 0.02698c-0.0125 0.0304-0.0238 0.06136-0.0339 0.09287a1.254915 1.254915 0 0 0-6e-3 0.01902c-0.0102 0.03385-0.019 0.06837-0.0264 0.103326a1.254915 1.254915 0 0 0-3e-3 0.01591c-7e-3 0.03646-0.0128 0.07347-0.0168 0.110936a1.254915 1.254915 0 0 0-1e-3 0.0099c-4e-3 0.04025-6e-3 0.08097-6e-3 0.122176 9e-5 0.02523 1e-3 0.05038 3e-3 0.07549a1.254915 1.254915 0 0 0 2e-3 0.03035c3e-3 0.03162 6e-3 0.06315 0.0115 0.09442a1.254915 1.254915 0 0 0 8e-3 0.04003c4e-3 0.02049 9e-3 0.04087 0.0138 0.06113a1.254915 1.254915 0 0 0 0.0206 0.07315c4e-3 0.01165 8e-3 0.02321 0.0116 0.03476a1.254915 1.254915 0 0 0 0.0387 0.0984c1e-3 0.0026 2e-3 0.0053 3e-3 0.0079l-1.55362 1.686606c-0.15701 0.170447-0.14623 0.43407297 0.0242 0.59108197 0.17045 0.157009 0.43408 0.146149 0.59108-0.0243l0.44254-0.48040497v1.525001h0.83664v-2.433246l0.23908-0.259485c0.018 9e-3 0.0363 0.01752 0.0546 0.02568a1.254915 1.254915 0 0 0 0.04 0.01686c0.0252 0.01017 0.0508 0.01943 0.0766 0.02793a1.254915 1.254915 0 0 0 0.0343 0.01107c0.0288 0.0086 0.058 0.01582 0.0873 0.02231a1.254915 1.254915 0 0 0 0.0399 0.0081c0.0308 0.0058 0.0618 0.01064 0.093 0.01409a1.254915 1.254915 0 0 0 9e-5 0 1.254915 1.254915 0 0 0 0.13679 8e-3 1.254915 1.254915 0 0 0 1.25488-1.254968 1.254915 1.254915 0 0 0-1.25488-1.254882z" fill="url(#linearGradient6638)" style="paint-order:normal"/>
      <path d="m90.015408 0.43913967c-0.463482 0-0.836645 0.373163-0.836645 0.83664503 0 0.463482 0.373163 0.836558 0.836645 0.836558h0.83656c0.462075-1.8e-5 0.836665 0.374572 0.836645 0.836647v4.183053c0 0.463482 0.37316 0.836558 0.83665 0.836558h11.712507c0.46348 0 0.83665-0.373076 0.83665-0.836558v-4.183053c-2e-5 -0.462041 0.37452-0.836618 0.83656-0.836647h0.83664c0.46348 0 0.83656-0.373076 0.83656-0.836558 0-0.46348203-0.37308-0.83664503-0.83656-0.83664503h-0.44271z" fill="url(#linearGradient6769)" style="paint-order:normal"/>
     </g>
     <path d="m90.851968 2.1123427c0.278177 3.35e-4 0.538015 0.138832 0.693285 0.369643l14.288077-0.365319s-1.38359-0.0043-1.59556-0.0043h-11.712507z" fill="#1a1a1a" opacity=".2"/>
    </g>
   </g>
  </g>
 </g>
</svg>
